<svg width="113" height="113" xmlns="http://www.w3.org/2000/svg" xmlns:xlink="http://www.w3.org/1999/xlink" overflow="hidden"><defs><clipPath id="clip0"><rect x="0" y="0" width="113" height="113"/></clipPath><clipPath id="clip1"><rect x="13" y="42" width="93" height="40"/></clipPath><clipPath id="clip2"><rect x="13" y="42" width="93" height="40"/></clipPath><clipPath id="clip3"><rect x="13" y="42" width="93" height="40"/></clipPath><clipPath id="clip4"><rect x="7" y="20" width="93" height="73"/></clipPath><clipPath id="clip5"><rect x="7" y="20" width="93" height="73"/></clipPath><clipPath id="clip6"><rect x="7" y="20" width="93" height="73"/></clipPath></defs><g clip-path="url(#clip0)"><rect x="0" y="0" width="113" height="113" fill="#FFFFFF"/><g clip-path="url(#clip1)"><g clip-path="url(#clip2)"><g clip-path="url(#clip3)"><path d="M87.6217 2.31161C75.058 11.251 60.9831 17.8486 46.075 21.7866 31.2786 25.5497 16.138 27.799 0.886664 28.5 1.19376 30.749 1.74593 32.9577 2.53333 35.0867 11.1467 42.8767 76.0001 29.5766 88.6667 14.1866 91.3584 10.9883 87.6217 2.31161 87.6217 2.31161ZM10.6083 34.8334C10.1825 34.8334 9.76614 34.707 9.41201 34.4705 9.05788 34.2339 8.7819 33.8976 8.61891 33.504 8.45593 33.1104 8.4133 32.6775 8.49636 32.2598 8.57946 31.8421 8.78456 31.4585 9.08571 31.1573 9.38686 30.8562 9.77054 30.6511 10.1883 30.568 10.6059 30.4849 11.0389 30.5275 11.4324 30.6905 11.8259 30.8535 12.1622 31.1295 12.3988 31.4836 12.6354 31.8377 12.7617 32.2541 12.7617 32.68 12.766 32.9641 12.7132 33.2459 12.6064 33.5091 12.4998 33.7722 12.3413 34.0113 12.1405 34.2121 11.9397 34.4128 11.7006 34.5715 11.4374 34.6782 11.1742 34.7849 10.8923 34.8375 10.6083 34.8334Z" fill="#303030" transform="matrix(1.00181 0 0 1 14 43)"/></g></g></g><g clip-path="url(#clip4)"><g clip-path="url(#clip5)"><g clip-path="url(#clip6)"><path d="M67.0966 5.93178 62.9407 2.75936C62.2913 2.23342 61.4604 1.98506 60.6286 2.06822 59.7971 2.15138 59.032 2.55936 58.4993 3.2035L0.983442 69.2532 1.87172 70.2366 16.1159 57.1028C15.6411 56.9118 15.2484 56.5603 15.0058 56.1099 14.7631 55.6594 14.6861 55.1381 14.7879 54.6366 14.8897 54.135 15.1639 53.6852 15.563 53.3648 15.9621 53.0447 16.4608 52.8743 16.9724 52.8835 17.4338 52.8835 17.883 53.0313 18.2541 53.3054 18.6253 53.5795 18.8988 53.9653 19.0345 54.4063L37.8152 36.9897C38.1029 36.7578 38.4611 36.6315 38.8303 36.6315 39.1996 36.6315 39.5578 36.7578 39.8455 36.9897L40.7972 37.6876C41.1192 37.9183 41.5158 38.0204 41.9092 37.9735 42.3026 37.9265 42.6642 37.734 42.9228 37.4338L67.4772 9.8973C67.7383 9.62393 67.9372 9.29758 68.061 8.94043 68.1847 8.58328 68.2297 8.2037 68.1936 7.82749 68.1577 7.45127 68.041 7.08724 67.8516 6.76013 67.6622 6.43302 67.4049 6.15052 67.0966 5.93178Z" fill="#303030" transform="matrix(1 0 0 1.00047 7.00003 20)"/></g></g></g></g></svg>